<svg xmlns="http://www.w3.org/2000/svg" width="190" height="307" fill="none" viewBox="0 0 190 307"><mask id="mask0_405_242" style="mask-type:alpha" width="190" height="307" x="0" y="0" maskUnits="userSpaceOnUse"><path fill="#000" fill-rule="evenodd" d="M185.723 0.562608C187.422 -1.06048 190.006 1.1527 188.677 3.09299L129.242 89.8622C128.306 91.2276 129.377 93.0695 131.021 92.9251L165.96 89.857C167.7 89.7042 168.749 91.7454 167.616 93.08L107.653 163.772C106.521 165.107 107.57 167.147 109.309 166.995L146.932 163.691C148.773 163.53 149.787 165.786 148.448 167.063L3.32123 305.671C1.62178 307.295 -0.96231 305.081 0.366724 303.141L60.5835 215.23C61.5188 213.865 60.4489 212.022 58.8045 212.167L23.118 215.301C21.3843 215.453 20.3335 213.425 21.4535 212.088L79.6533 142.605C80.7733 141.268 79.7225 139.238 77.9888 139.391L42.112 142.542C40.272 142.703 39.258 140.447 40.5961 139.17L185.723 0.562608Z" clip-rule="evenodd"/></mask><g mask="url(#mask0_405_242)"><g filter="url(#filter0_bdiiiii_405_242)"><path fill="#000" fill-rule="evenodd" d="M185.723 0.562608C187.422 -1.06048 190.006 1.1527 188.677 3.09299L129.242 89.8622C128.306 91.2276 129.377 93.0695 131.021 92.9251L165.96 89.857C167.7 89.7042 168.749 91.7454 167.616 93.08L107.653 163.772C106.521 165.107 107.57 167.147 109.309 166.995L146.932 163.691C148.773 163.53 149.787 165.786 148.448 167.063L3.32123 305.671C1.62178 307.295 -0.96231 305.081 0.366724 303.141L60.5835 215.23C61.5188 213.865 60.4489 212.022 58.8045 212.167L23.118 215.301C21.3843 215.453 20.3335 213.425 21.4535 212.088L79.6533 142.605C80.7733 141.268 79.7225 139.238 77.9888 139.391L42.112 142.542C40.272 142.703 39.258 140.447 40.5961 139.17L185.723 0.562608Z" clip-rule="evenodd"/></g><g style="mix-blend-mode:overlay"><rect width="205.297" height="317.354" x="-5.987" y="-6.843" fill="url(#paint0_linear_405_242)"/></g></g><defs><filter id="filter0_bdiiiii_405_242" width="358.263" height="475.453" x="-84.609" y="-84.609" color-interpolation-filters="sRGB" filterUnits="userSpaceOnUse"><feFlood flood-opacity="0" result="BackgroundImageFix"/><feGaussianBlur in="BackgroundImageFix" stdDeviation="42.305"/><feComposite in2="SourceAlpha" operator="in" result="effect1_backgroundBlur_405_242"/><feColorMatrix in="SourceAlpha" result="hardAlpha" type="matrix" values="0 0 0 0 0 0 0 0 0 0 0 0 0 0 0 0 0 0 127 0"/><feOffset dy="8.461"/><feGaussianBlur stdDeviation="21.152"/><feComposite in2="hardAlpha" operator="out"/><feColorMatrix type="matrix" values="0 0 0 0 0 0 0 0 0 0 0 0 0 0 0 0 0 0 0.2 0"/><feBlend in2="effect1_backgroundBlur_405_242" mode="normal" result="effect2_dropShadow_405_242"/><feBlend in="SourceGraphic" in2="effect2_dropShadow_405_242" mode="normal" result="shape"/><feColorMatrix in="SourceAlpha" result="hardAlpha" type="matrix" values="0 0 0 0 0 0 0 0 0 0 0 0 0 0 0 0 0 0 127 0"/><feOffset dy="8.461"/><feGaussianBlur stdDeviation="12.691"/><feComposite in2="hardAlpha" k2="-1" k3="1" operator="arithmetic"/><feColorMatrix type="matrix" values="0 0 0 0 1 0 0 0 0 1 0 0 0 0 1 0 0 0 0.4 0"/><feBlend in2="shape" mode="normal" result="effect3_innerShadow_405_242"/><feColorMatrix in="SourceAlpha" result="hardAlpha" type="matrix" values="0 0 0 0 0 0 0 0 0 0 0 0 0 0 0 0 0 0 127 0"/><feOffset dy="-84.609"/><feGaussianBlur stdDeviation="42.305"/><feComposite in2="hardAlpha" k2="-1" k3="1" operator="arithmetic"/><feColorMatrix type="matrix" values="0 0 0 0 0 0 0 0 0 0 0 0 0 0 0 0 0 0 0.2 0"/><feBlend in2="effect3_innerShadow_405_242" mode="normal" result="effect4_innerShadow_405_242"/><feColorMatrix in="SourceAlpha" result="hardAlpha" type="matrix" values="0 0 0 0 0 0 0 0 0 0 0 0 0 0 0 0 0 0 127 0"/><feOffset dy="-8.461"/><feGaussianBlur stdDeviation="4.23"/><feComposite in2="hardAlpha" k2="-1" k3="1" operator="arithmetic"/><feColorMatrix type="matrix" values="0 0 0 0 1 0 0 0 0 1 0 0 0 0 1 0 0 0 0.25 0"/><feBlend in2="effect4_innerShadow_405_242" mode="normal" result="effect5_innerShadow_405_242"/><feColorMatrix in="SourceAlpha" result="hardAlpha" type="matrix" values="0 0 0 0 0 0 0 0 0 0 0 0 0 0 0 0 0 0 127 0"/><feOffset dy="42.305"/><feGaussianBlur stdDeviation="42.305"/><feComposite in2="hardAlpha" k2="-1" k3="1" operator="arithmetic"/><feColorMatrix type="matrix" values="0 0 0 0 1 0 0 0 0 1 0 0 0 0 1 0 0 0 0.25 0"/><feBlend in2="effect5_innerShadow_405_242" mode="normal" result="effect6_innerShadow_405_242"/><feColorMatrix in="SourceAlpha" result="hardAlpha" type="matrix" values="0 0 0 0 0 0 0 0 0 0 0 0 0 0 0 0 0 0 127 0"/><feOffset dy="2.115"/><feGaussianBlur stdDeviation="2.115"/><feComposite in2="hardAlpha" k2="-1" k3="1" operator="arithmetic"/><feColorMatrix type="matrix" values="0 0 0 0 1 0 0 0 0 1 0 0 0 0 1 0 0 0 0.8 0"/><feBlend in2="effect6_innerShadow_405_242" mode="normal" result="effect7_innerShadow_405_242"/></filter><linearGradient id="paint0_linear_405_242" x1="115.907" x2="53.035" y1="25.235" y2="288.271" gradientUnits="userSpaceOnUse"><stop stop-color="#FFE702"/><stop offset=".333" stop-color="#FF3DCF"/><stop offset=".661" stop-color="#36DCFF"/><stop offset=".854" stop-color="#49F0A1"/><stop offset="1" stop-color="#58FF5A"/></linearGradient></defs></svg>